<svg id="Layer_1" enable-background="new 0 0 512.017 512.017" height="80" transform='rotate(20)' viewBox="0 0 512.017 512.017" width="512" xmlns="http://www.w3.org/2000/svg"><path d="m336.009 16c0 106.383 3.178 140.479-12.33 175.51-5.907 13.319-14.67 25.277-26.67 33.33-.73.96-1.55 1.86-2.51 2.66-12.61 10.53-22.49 33.34-22.49 51.93v45.16c0 78.417 32 115.528 32 138.86 0 24.006-17.875 45.48-42.71 48.25-28.395 3.296-53.29-19.556-53.29-48.25 0-8.599 4.333-20.468 7.51-26.81 28.002-62.191 24.49-105.702 24.49-157.21 0-18.59-9.88-41.4-22.49-51.93-.96-.8-1.78-1.7-2.51-2.66-11.948-8.018-20.749-20.045-26.67-33.33-15.514-35.044-12.33-69.223-12.33-175.51 0-8.84 7.16-16 16-16s16 7.16 16 16c0 135.472.1 86.868.1 97.75.882 8.096 7.766 14.25 15.9 14.25 8.82 0 16-7.18 16-16v-96c0-8.84 7.16-16 16-16s16 7.16 16 16c0 135.472.1 86.868.1 97.75.882 8.096 7.766 14.25 15.9 14.25 8.82 0 16-7.18 16-16v-96c0-8.84 7.16-16 16-16s16 7.16 16 16z" fill="#999"/><path d="m336.009 0v40c0 82.92-63.07 151.1-143.86 159.19-12.755-23.147-16.14-52.746-16.14-79.19v-120h16c8.84 0 16 7.16 16 16 0 113.784.1 95.789.1 97.75.81 7.43 6.72 13.34 14.15 14.15.04 0 .08.01.12.02 9.84.912 17.63-6.783 17.63-15.92v-96c0-8.84 7.16-16 16-16s16 7.16 16 16c0 113.784.1 95.789.1 97.75.81 7.43 6.72 13.34 14.15 14.15.04 0 .08.01.12.02 9.84.912 17.63-6.783 17.63-15.92v-96c0-8.84 7.16-16 16-16z" fill="#aaa"/></svg>